<svg id="visual" viewBox="0 0 900 600" width="900" height="600" xmlns="http://www.w3.org/2000/svg" xmlns:xlink="http://www.w3.org/1999/xlink" version="1.1"><path d="M0 503L21.5 487.8C43 472.7 86 442.3 128.8 443.7C171.7 445 214.3 478 257.2 483C300 488 343 465 385.8 450.3C428.7 435.7 471.3 429.3 514.2 438.8C557 448.3 600 473.7 642.8 490.3C685.7 507 728.3 515 771.2 499C814 483 857 443 878.5 423L900 403L900 601L878.5 601C857 601 814 601 771.2 601C728.3 601 685.7 601 642.8 601C600 601 557 601 514.2 601C471.3 601 428.7 601 385.8 601C343 601 300 601 257.2 601C214.3 601 171.7 601 128.8 601C86 601 43 601 21.5 601L0 601Z" fill="#F8FAF8" stroke-linecap="round" stroke-linejoin="miter"></path></svg>