<svg id="visual" viewBox="0 0 900 600" width="900" height="600" xmlns="http://www.w3.org/2000/svg" xmlns:xlink="http://www.w3.org/1999/xlink" version="1.1"><path d="M0 158L15 159.3C30 160.7 60 163.3 90 144.3C120 125.3 150 84.7 180 101.3C210 118 240 192 270 223.3C300 254.7 330 243.3 360 227.5C390 211.7 420 191.3 450 182.8C480 174.3 510 177.7 540 191.2C570 204.7 600 228.3 630 240.7C660 253 690 254 720 235.3C750 216.7 780 178.3 810 170.8C840 163.3 870 186.7 885 198.3L900 210L900 0L885 0C870 0 840 0 810 0C780 0 750 0 720 0C690 0 660 0 630 0C600 0 570 0 540 0C510 0 480 0 450 0C420 0 390 0 360 0C330 0 300 0 270 0C240 0 210 0 180 0C150 0 120 0 90 0C60 0 30 0 15 0L0 0Z" fill="#0066FF" stroke-linecap="round" stroke-linejoin="miter"></path></svg>