<svg id="visual" viewBox="0 0 900 600" width="900" height="600" xmlns="http://www.w3.org/2000/svg" xmlns:xlink="http://www.w3.org/1999/xlink" version="1.1"><rect x="0" y="0" width="900" height="600" fill="#002233"></rect><path d="M0 379L21.5 397.2C43 415.3 86 451.7 128.8 457.3C171.7 463 214.3 438 257.2 443C300 448 343 483 385.8 499.5C428.7 516 471.3 514 514.2 493.7C557 473.3 600 434.7 642.8 435.3C685.7 436 728.3 476 771.2 496.2C814 516.3 857 516.7 878.5 516.8L900 517L900 601L878.5 601C857 601 814 601 771.2 601C728.3 601 685.7 601 642.8 601C600 601 557 601 514.2 601C471.3 601 428.7 601 385.8 601C343 601 300 601 257.2 601C214.3 601 171.7 601 128.8 601C86 601 43 601 21.5 601L0 601Z" fill="#0066FF" stroke-linecap="round" stroke-linejoin="miter"></path></svg>